<?xml version="1.0" encoding="utf-8"?>
<!-- Generator: Adobe Illustrator 21.0.0, SVG Export Plug-In . SVG Version: 6.00 Build 0)  -->
<svg version="1.1" id="Calque_1" xmlns="http://www.w3.org/2000/svg" xmlns:xlink="http://www.w3.org/1999/xlink" x="0px" y="0px"
	 viewBox="0 0 841.9 595.3" style="enable-background:new 0 0 841.9 595.3;" xml:space="preserve">
<path d="M390.3,302.2c5.7-5,9.3-12.3,11.7-19.5c6.2,2.6,9.5,5.7,10.2,6.4C406.3,295.6,398.8,300.2,390.3,302.2 M349.5,288.2
	c1.6-1.1,4.9-3.3,10-5.3c2.3,7,5.8,14,11.2,18.9C362.4,299.6,355,294.7,349.5,288.2 M372,214.1c-3.8,3.2-8.9,8.9-12.5,18.6
	c-5.6-1.8-8.5-4-9.7-5C355.6,221,363.3,216.1,372,214.1 M411.6,226.6c-0.8,1.1-3.3,4.1-9.6,6.4c-3.7-10.1-9.2-16-13-19.2
	C397.8,215.5,405.6,220.1,411.6,226.6 M406,255.9c-0.2-7.3-1.2-13.5-2.6-18.8c6.2-2.2,9.5-5.1,11.1-7.1c5.4,7.2,8.8,16.1,9.3,25.9
	H406z M383.5,274.6v-14.3h18.1c-0.2,3.2-0.8,9.7-2.6,16.6C394.7,275.7,389.6,274.8,383.5,274.6 M383.5,301.7V279
	c5.6,0.2,10.4,1,14.3,2.2C395.2,289.4,390.8,297.6,383.5,301.7 M378.9,279v23.1c-7.8-3.8-12.5-12.2-15.2-20.7
	C367.9,280.2,373,279.3,378.9,279 M359.8,260.3h19.1v14.3c-6.4,0.2-11.8,1.3-16.4,2.6C360.7,270.2,360,263.6,359.8,260.3
	 M355.4,260.3c0.2,3.5,0.8,10.6,2.8,18.3c-5.8,2.2-9.6,4.7-11.5,6c-4.8-6.9-7.7-15.3-8.1-24.4H355.4z M378.9,240.1v15.8h-19.1
	c0.2-7,1.1-12.9,2.5-17.8C366.7,239.2,372.2,239.9,378.9,240.1 M383.5,213.3v-0.3c0,0,0.1,0,0.1,0L383.5,213.3z M383.5,235.8v-20.6
	c2.3,1.4,9.6,6.6,14.3,19C394,235.1,389.3,235.7,383.5,235.8 M383.5,240.2c6.3-0.1,11.5-0.8,15.6-1.8c1.4,4.9,2.3,10.7,2.5,17.5
	h-18.1V240.2z M378.6,214.8l-0.8-1.6c0.4,0,0.7-0.1,1.1-0.1v22.7c-6.2-0.2-11.2-0.9-15.2-1.8C369.1,219.7,378.1,215.1,378.6,214.8
	 M347.1,231.1c1.7,1.5,5.1,3.8,11,5.8c-1.5,5.3-2.5,11.6-2.7,19h-16.7C339.1,246.7,342.2,238.1,347.1,231.1 M414.9,285.7
	c-1.4-1.4-5.2-4.6-11.7-7.2c2-7.6,2.6-14.7,2.8-18.1h17.8C423.3,269.8,420.1,278.6,414.9,285.7 M381.2,208.6
	c-25.9,0-47,22.2-47,49.5c0,27.3,21.1,49.5,47,49.5c25.9,0,47-22.2,47-49.5C428.2,230.8,407.1,208.6,381.2,208.6"/>
</svg>
